<?xml version="1.0" encoding="UTF-8"?>
<svg version="1.1" xmlns="http://www.w3.org/2000/svg" width="512" height="512">
<path d="M0 0 C1.52418401 2.64191896 3.04836118 5.28384186 4.57250977 7.92578125 C5.91272941 10.24876287 7.25304442 12.57168918 8.59350586 14.89453125 C11.76804018 20.39588274 14.94188764 25.89762129 18.11073303 31.4022522 C19.11578067 33.14804826 20.12119178 34.89363451 21.12670898 36.63916016 C22.38474962 38.82331798 23.64211197 41.00786668 24.89868164 43.19287109 C28.16394848 48.85990802 31.48299914 54.48115656 34.93139648 60.0390625 C36 62 36 62 36 64 C64.38 64 92.76 64 122 64 C121.77054687 70.17847656 121.54109375 76.35695313 121.3046875 82.72265625 C121.21730273 86.66558866 121.13777669 90.60565731 121.0859375 94.54882812 C121.00309669 100.79446236 120.89333555 107.03052214 120.61132812 113.27075195 C118.46127682 135.35782722 118.46127682 135.35782722 125.43075562 155.28140259 C131.49947299 160.5061502 138.34021184 163.36487534 145.86889648 165.90054321 C149.89398258 167.31391336 153.31812564 169.27160314 156.91015625 171.53515625 C160.01743671 173.31702021 163.12504491 175.09817946 166.23632812 176.87304688 C172.31765958 180.36609036 178.22655478 184.01727821 184 188 C182.85138815 190.96470328 181.65282613 193.80233962 180.109375 196.58203125 C179.73683594 197.25435791 179.36429687 197.92668457 178.98046875 198.61938477 C178.57441406 199.34311279 178.16835938 200.06684082 177.75 200.8125 C177.10224609 201.9725354 177.10224609 201.9725354 176.44140625 203.15600586 C172.69510448 209.83074555 168.85637315 216.45090139 165 223.0625 C164.11284302 224.58750122 164.11284302 224.58750122 163.20776367 226.14331055 C160.47341507 230.82899145 157.71363398 235.49113242 154.84765625 240.09765625 C154.37392578 240.86907959 153.90019531 241.64050293 153.41210938 242.43530273 C152.54098587 243.84867225 151.65643782 245.25389563 150.75585938 246.64868164 C148.97075493 249.56227011 147.95570056 251.42483835 148.22192383 254.88134766 C149.0345258 258.13838486 150.14642316 260.47599739 151.8515625 263.359375 C152.44839844 264.38015137 153.04523438 265.40092773 153.66015625 266.45263672 C154.30855469 267.5407666 154.95695312 268.62889648 155.625 269.75 C156.64303241 271.48503637 157.66104995 273.22008167 158.67816162 274.95565796 C159.73747798 276.76078804 160.8006744 278.56359235 161.86425781 280.36621094 C165.28684558 286.17701306 168.63844909 292.02875034 172 297.875 C173.18692028 299.93522992 174.37440007 301.99513763 175.5625 304.0546875 C176.12066406 305.03018555 176.67882812 306.00568359 177.25390625 307.01074219 C178.47939317 309.10873741 179.74055699 311.18610405 181.02734375 313.24707031 C181.67832031 314.30249023 182.32929688 315.35791016 183 316.4453125 C183.598125 317.39164551 184.19625 318.33797852 184.8125 319.31298828 C186 322 186 322 185.98266602 324.65600586 C184.66864452 327.79039601 183.26296992 328.47666355 180.27734375 330.05859375 C179.27533936 330.60249756 178.27333496 331.14640137 177.2409668 331.70678711 C176.15082275 332.27792236 175.06067871 332.84905762 173.9375 333.4375 C171.64989906 334.67497343 169.36347029 335.91461582 167.078125 337.15625 C166.49222092 337.47194443 165.90631683 337.78763885 165.30265808 338.11289978 C159.18317253 341.4156532 153.18160861 344.91298901 147.1875 348.4375 C146.24189209 348.99171631 145.29628418 349.54593262 144.32202148 350.11694336 C143.40493408 350.65456299 142.48784668 351.19218262 141.54296875 351.74609375 C140.64755371 352.27058105 139.75213867 352.79506836 138.82958984 353.33544922 C136.78425623 354.53864893 134.74347312 355.74959548 132.70556641 356.96533203 C131.6232373 357.60712402 130.5409082 358.24891602 129.42578125 358.91015625 C128.43618408 359.50062744 127.44658691 360.09109863 126.42700195 360.69946289 C124 362 124 362 122 362 C122 390.38 122 418.76 122 448 C92.96 448 63.92 448 34 448 C33.34 449.65 32.68 451.3 32 453 C31.1794454 454.57373278 30.32875569 456.13201455 29.453125 457.67578125 C28.94467041 458.57466064 28.43621582 459.47354004 27.91235352 460.3996582 C27.36377686 461.360896 26.8152002 462.32213379 26.25 463.3125 C25.68015381 464.31563232 25.11030762 465.31876465 24.52319336 466.35229492 C16.18199481 480.99795377 7.70276282 495.56610156 -1 510 C-12.97799829 504.39058531 -24.26940909 497.6746734 -35.65625 490.96728516 C-40.93488208 487.86161801 -46.22118936 484.76948101 -51.51794434 481.69482422 C-53.22156111 480.70403941 -54.92184737 479.70753502 -56.62207031 478.7109375 C-57.65944336 478.10894531 -58.69681641 477.50695312 -59.765625 476.88671875 C-61.13895996 476.08560669 -61.13895996 476.08560669 -62.54003906 475.26831055 C-65.63408847 473.64321121 -65.63408847 473.64321121 -69 473 C-71.50703072 473.99052098 -71.50703072 473.99052098 -74.09375 475.62109375 C-75.11049805 476.21913818 -76.12724609 476.81718262 -77.17480469 477.43334961 C-78.82077637 478.42540405 -78.82077637 478.42540405 -80.5 479.4375 C-81.6518439 480.11931622 -82.80452925 480.79971269 -83.95800781 481.47875977 C-85.76911356 482.54539612 -87.57950966 483.61310779 -89.38726807 484.68540955 C-95.54148492 488.33555839 -101.75123523 491.88557938 -107.9699707 495.42434692 C-110.78886768 497.02880037 -113.60518045 498.63777788 -116.421875 500.24609375 C-117.48728516 500.85179199 -118.55269531 501.45749023 -119.65039062 502.08154297 C-122.05371898 503.45802651 -124.44684581 504.84655784 -126.83398438 506.25048828 C-127.78739716 506.80688744 -127.78739716 506.80688744 -128.7600708 507.37452698 C-129.98740431 508.0912151 -131.21180722 508.81295251 -132.43280029 509.54039001 C-135.19566763 511.14696948 -136.74266019 512 -140 512 C-141.52418401 509.35808104 -143.04836118 506.71615814 -144.57250977 504.07421875 C-145.91272941 501.75123713 -147.25304442 499.42831082 -148.59350586 497.10546875 C-151.76804018 491.60411726 -154.94188764 486.10237871 -158.11073303 480.5977478 C-159.11578067 478.85195174 -160.12119178 477.10636549 -161.12670898 475.36083984 C-162.38474962 473.17668202 -163.64211197 470.99213332 -164.89868164 468.80712891 C-168.16394848 463.14009198 -171.48299914 457.51884344 -174.93139648 451.9609375 C-176 450 -176 450 -176 448 C-204.38 448 -232.76 448 -262 448 C-261.79375 441.80992187 -261.5875 435.61984375 -261.375 429.2421875 C-261.29786415 425.29481783 -261.22795651 421.34988714 -261.18359375 417.40234375 C-261.112639 411.1486519 -261.01669927 404.90307517 -260.76220703 398.65380859 C-258.88284467 376.8576516 -258.88284467 376.8576516 -265.23101807 356.81896973 C-270.77929047 351.86381937 -277.06108667 349.27304541 -284.07287598 346.99908447 C-287.96197319 345.6716598 -291.22718728 343.75154592 -294.6796875 341.5625 C-297.80252768 339.76543001 -300.92653156 337.97039946 -304.05078125 336.17578125 C-310.40826225 332.51685648 -316.72531473 328.79925496 -323 325 C-322.41933397 321.19439766 -321.33578266 318.473423 -319.3671875 315.17578125 C-318.53960937 313.77513428 -318.53960937 313.77513428 -317.6953125 312.34619141 C-317.09460938 311.34507324 -316.49390625 310.34395508 -315.875 309.3125 C-314.60079087 307.16061297 -313.32738199 305.00825193 -312.0546875 302.85546875 C-311.39049805 301.73575684 -310.72630859 300.61604492 -310.04199219 299.46240234 C-306.01277741 292.6492042 -302.09429349 285.7710626 -298.15185547 278.9074707 C-297.56549316 277.8887085 -296.97913086 276.86994629 -296.375 275.8203125 C-295.81554687 274.84352539 -295.25609375 273.86673828 -294.6796875 272.86035156 C-293.55244219 270.94075766 -292.39015835 269.04134741 -291.1953125 267.16308594 C-290.35613281 265.84099121 -290.35613281 265.84099121 -289.5 264.4921875 C-288.9946875 263.71987793 -288.489375 262.94756836 -287.96875 262.15185547 C-286.81407026 260.07535784 -286.81407026 260.07535784 -287.23168945 257.93701172 C-288.5759665 254.54791287 -290.39513535 251.41623235 -292.1875 248.25 C-292.62674805 247.46705566 -293.06599609 246.68411133 -293.51855469 245.87744141 C-297.20259481 239.34202033 -300.96962562 232.85503872 -304.75 226.375 C-305.33104492 225.37791016 -305.91208984 224.38082031 -306.51074219 223.35351562 C-309.65401201 217.97240231 -312.82861925 212.61242186 -316.04296875 207.2734375 C-317.02088379 205.6349585 -317.02088379 205.6349585 -318.01855469 203.96337891 C-319.27587145 201.85793321 -320.54311651 199.75837753 -321.82128906 197.66552734 C-322.38428711 196.71887207 -322.94728516 195.7722168 -323.52734375 194.796875 C-324.02999756 193.96510742 -324.53265137 193.13333984 -325.05053711 192.27636719 C-326 190 -326 190 -325.93164062 187.88305664 C-324.63475312 185.26175336 -323.10586391 184.50436405 -320.56640625 183.07421875 C-319.61991211 182.53224854 -318.67341797 181.99027832 -317.69824219 181.43188477 C-316.66344727 180.85623779 -315.62865234 180.28059082 -314.5625 179.6875 C-313.49805664 179.08156006 -312.43361328 178.47562012 -311.33691406 177.85131836 C-309.0667046 176.5591395 -306.7936559 175.27193848 -304.51806641 173.98925781 C-298.7352182 170.72705593 -292.99707847 167.3871558 -287.25 164.0625 C-285.17204223 162.86559504 -283.09392251 161.66897119 -281.015625 160.47265625 C-280.08946884 159.91476913 -279.16331268 159.35688202 -278.20909119 158.78208923 C-275 157 -275 157 -271.83642578 155.81503296 C-268.16216668 154.27082957 -265.78416646 152.87616115 -263 150 C-260.74447279 143.88976676 -261.46395942 136.9027248 -261.609375 130.50390625 C-261.60714201 128.80332899 -261.59951626 127.10275002 -261.58642578 125.40222168 C-261.57569075 119.12208693 -261.66907143 112.84212246 -261.75 106.5625 C-261.87375 85.4940625 -261.87375 85.4940625 -262 64 C-232.63 64 -203.26 64 -173 64 C-172.01 61.03 -172.01 61.03 -171 58 C-169.65193627 55.5365909 -168.27200455 53.14487439 -166.8125 50.75 C-165.914004 49.25081459 -165.01696781 47.75075368 -164.12109375 46.25 C-163.38028564 45.01056641 -163.38028564 45.01056641 -162.62451172 43.74609375 C-159.48841223 38.44479422 -156.44057627 33.09227351 -153.375 27.75 C-148.38710296 19.07545069 -143.33030609 10.46836158 -138 2 C-130.09461402 5.84383194 -122.43509571 9.95562337 -114.875 14.4375 C-112.79326587 15.66066206 -110.71122279 16.88329844 -108.62890625 18.10546875 C-107.55398926 18.73759277 -106.47907227 19.3697168 -105.37158203 20.02099609 C-100.10211262 23.1139953 -94.82244832 26.18914407 -89.53497314 29.25125122 C-87.84386968 30.23181079 -86.15506576 31.21633278 -84.46630859 32.20092773 C-83.43199707 32.79977783 -82.39768555 33.39862793 -81.33203125 34.015625 C-80.42171143 34.54446289 -79.5113916 35.07330078 -78.57348633 35.61816406 C-77.72423584 36.07416992 -76.87498535 36.53017578 -76 37 C-75.18257324 37.44883545 -74.36514648 37.8976709 -73.52294922 38.36010742 C-70.93788776 39.26891496 -70.93788776 39.26891496 -68.2746582 37.99633789 C-67.29327881 37.41102295 -66.31189941 36.82570801 -65.30078125 36.22265625 C-64.18654785 35.57103516 -63.07231445 34.91941406 -61.92431641 34.24804688 C-60.72023388 33.51976882 -59.51629868 32.79124714 -58.3125 32.0625 C-57.06536686 31.32564893 -55.81714033 30.59064554 -54.56787109 29.85742188 C-51.98595774 28.33929743 -49.40973046 26.8121388 -46.83740234 25.27783203 C-40.97150639 21.78567666 -35.04504554 18.39928563 -29.125 15 C-20.73421913 10.1663733 -20.73421913 10.1663733 -12.37109375 5.28515625 C-11.71157715 4.90037109 -11.05206055 4.51558594 -10.37255859 4.11914062 C-8.72624129 3.15808569 -7.08361423 2.19071627 -5.44140625 1.22265625 C-3 0 -3 0 0 0 Z " fill="#00023B" transform="translate(326,0)"/>
<path d="M0 0 C1.52418401 2.64191896 3.04836118 5.28384186 4.57250977 7.92578125 C5.91272941 10.24876287 7.25304442 12.57168918 8.59350586 14.89453125 C11.76804018 20.39588274 14.94188764 25.89762129 18.11073303 31.4022522 C19.11578067 33.14804826 20.12119178 34.89363451 21.12670898 36.63916016 C22.38474962 38.82331798 23.64211197 41.00786668 24.89868164 43.19287109 C28.16394848 48.85990802 31.48299914 54.48115656 34.93139648 60.0390625 C36 62 36 62 36 64 C64.38 64 92.76 64 122 64 C121.77054687 70.17847656 121.54109375 76.35695313 121.3046875 82.72265625 C121.21730273 86.66558866 121.13777669 90.60565731 121.0859375 94.54882812 C121.00309669 100.79446236 120.89333555 107.03052214 120.61132812 113.27075195 C118.46127682 135.35782722 118.46127682 135.35782722 125.43075562 155.28140259 C131.49947299 160.5061502 138.34021184 163.36487534 145.86889648 165.90054321 C149.89398258 167.31391336 153.31812564 169.27160314 156.91015625 171.53515625 C160.01743671 173.31702021 163.12504491 175.09817946 166.23632812 176.87304688 C172.31765958 180.36609036 178.22655478 184.01727821 184 188 C182.85138815 190.96470328 181.65282613 193.80233962 180.109375 196.58203125 C179.73683594 197.25435791 179.36429687 197.92668457 178.98046875 198.61938477 C178.57441406 199.34311279 178.16835938 200.06684082 177.75 200.8125 C177.10224609 201.9725354 177.10224609 201.9725354 176.44140625 203.15600586 C172.69510448 209.83074555 168.85637315 216.45090139 165 223.0625 C164.11284302 224.58750122 164.11284302 224.58750122 163.20776367 226.14331055 C160.47341507 230.82899145 157.71363398 235.49113242 154.84765625 240.09765625 C154.37392578 240.86907959 153.90019531 241.64050293 153.41210938 242.43530273 C152.54098587 243.84867225 151.65643782 245.25389563 150.75585938 246.64868164 C148.97075493 249.56227011 147.95570056 251.42483835 148.22192383 254.88134766 C149.0345258 258.13838486 150.14642316 260.47599739 151.8515625 263.359375 C152.44839844 264.38015137 153.04523438 265.40092773 153.66015625 266.45263672 C154.30855469 267.5407666 154.95695312 268.62889648 155.625 269.75 C156.64303241 271.48503637 157.66104995 273.22008167 158.67816162 274.95565796 C159.73747798 276.76078804 160.8006744 278.56359235 161.86425781 280.36621094 C165.28684558 286.17701306 168.63844909 292.02875034 172 297.875 C173.18692028 299.93522992 174.37440007 301.99513763 175.5625 304.0546875 C176.12066406 305.03018555 176.67882812 306.00568359 177.25390625 307.01074219 C178.47939317 309.10873741 179.74055699 311.18610405 181.02734375 313.24707031 C181.67832031 314.30249023 182.32929688 315.35791016 183 316.4453125 C183.598125 317.39164551 184.19625 318.33797852 184.8125 319.31298828 C186 322 186 322 185.98266602 324.65600586 C184.66864452 327.79039601 183.26296992 328.47666355 180.27734375 330.05859375 C179.27533936 330.60249756 178.27333496 331.14640137 177.2409668 331.70678711 C176.15082275 332.27792236 175.06067871 332.84905762 173.9375 333.4375 C171.64989906 334.67497343 169.36347029 335.91461582 167.078125 337.15625 C166.49222092 337.47194443 165.90631683 337.78763885 165.30265808 338.11289978 C159.18317253 341.4156532 153.18160861 344.91298901 147.1875 348.4375 C146.24189209 348.99171631 145.29628418 349.54593262 144.32202148 350.11694336 C143.40493408 350.65456299 142.48784668 351.19218262 141.54296875 351.74609375 C140.64755371 352.27058105 139.75213867 352.79506836 138.82958984 353.33544922 C136.78425623 354.53864893 134.74347312 355.74959548 132.70556641 356.96533203 C131.6232373 357.60712402 130.5409082 358.24891602 129.42578125 358.91015625 C128.43618408 359.50062744 127.44658691 360.09109863 126.42700195 360.69946289 C124 362 124 362 122 362 C122 390.38 122 418.76 122 448 C92.96 448 63.92 448 34 448 C33.34 449.65 32.68 451.3 32 453 C31.1794454 454.57373278 30.32875569 456.13201455 29.453125 457.67578125 C28.94467041 458.57466064 28.43621582 459.47354004 27.91235352 460.3996582 C27.36377686 461.360896 26.8152002 462.32213379 26.25 463.3125 C25.68015381 464.31563232 25.11030762 465.31876465 24.52319336 466.35229492 C16.18199481 480.99795377 7.70276282 495.56610156 -1 510 C-12.97799829 504.39058531 -24.26940909 497.6746734 -35.65625 490.96728516 C-40.93488208 487.86161801 -46.22118936 484.76948101 -51.51794434 481.69482422 C-53.22156111 480.70403941 -54.92184737 479.70753502 -56.62207031 478.7109375 C-57.65944336 478.10894531 -58.69681641 477.50695312 -59.765625 476.88671875 C-61.13895996 476.08560669 -61.13895996 476.08560669 -62.54003906 475.26831055 C-65.63408847 473.64321121 -65.63408847 473.64321121 -69 473 C-71.50703072 473.99052098 -71.50703072 473.99052098 -74.09375 475.62109375 C-75.11049805 476.21913818 -76.12724609 476.81718262 -77.17480469 477.43334961 C-78.82077637 478.42540405 -78.82077637 478.42540405 -80.5 479.4375 C-81.6518439 480.11931622 -82.80452925 480.79971269 -83.95800781 481.47875977 C-85.76911356 482.54539612 -87.57950966 483.61310779 -89.38726807 484.68540955 C-95.54148492 488.33555839 -101.75123523 491.88557938 -107.9699707 495.42434692 C-110.78886768 497.02880037 -113.60518045 498.63777788 -116.421875 500.24609375 C-117.48728516 500.85179199 -118.55269531 501.45749023 -119.65039062 502.08154297 C-122.05371898 503.45802651 -124.44684581 504.84655784 -126.83398438 506.25048828 C-127.78739716 506.80688744 -127.78739716 506.80688744 -128.7600708 507.37452698 C-129.98740431 508.0912151 -131.21180722 508.81295251 -132.43280029 509.54039001 C-135.19566763 511.14696948 -136.74266019 512 -140 512 C-141.52418401 509.35808104 -143.04836118 506.71615814 -144.57250977 504.07421875 C-145.91272941 501.75123713 -147.25304442 499.42831082 -148.59350586 497.10546875 C-151.76804018 491.60411726 -154.94188764 486.10237871 -158.11073303 480.5977478 C-159.11578067 478.85195174 -160.12119178 477.10636549 -161.12670898 475.36083984 C-162.38474962 473.17668202 -163.64211197 470.99213332 -164.89868164 468.80712891 C-168.16394848 463.14009198 -171.48299914 457.51884344 -174.93139648 451.9609375 C-176 450 -176 450 -176 448 C-204.38 448 -232.76 448 -262 448 C-261.79375 441.80992187 -261.5875 435.61984375 -261.375 429.2421875 C-261.29786415 425.29481783 -261.22795651 421.34988714 -261.18359375 417.40234375 C-261.112639 411.1486519 -261.01669927 404.90307517 -260.76220703 398.65380859 C-258.88284467 376.8576516 -258.88284467 376.8576516 -265.23101807 356.81896973 C-270.77929047 351.86381937 -277.06108667 349.27304541 -284.07287598 346.99908447 C-287.96197319 345.6716598 -291.22718728 343.75154592 -294.6796875 341.5625 C-297.80252768 339.76543001 -300.92653156 337.97039946 -304.05078125 336.17578125 C-310.40826225 332.51685648 -316.72531473 328.79925496 -323 325 C-322.41933397 321.19439766 -321.33578266 318.473423 -319.3671875 315.17578125 C-318.53960937 313.77513428 -318.53960937 313.77513428 -317.6953125 312.34619141 C-317.09460938 311.34507324 -316.49390625 310.34395508 -315.875 309.3125 C-314.60079087 307.16061297 -313.32738199 305.00825193 -312.0546875 302.85546875 C-311.39049805 301.73575684 -310.72630859 300.61604492 -310.04199219 299.46240234 C-306.01277741 292.6492042 -302.09429349 285.7710626 -298.15185547 278.9074707 C-297.56549316 277.8887085 -296.97913086 276.86994629 -296.375 275.8203125 C-295.81554687 274.84352539 -295.25609375 273.86673828 -294.6796875 272.86035156 C-293.55244219 270.94075766 -292.39015835 269.04134741 -291.1953125 267.16308594 C-290.35613281 265.84099121 -290.35613281 265.84099121 -289.5 264.4921875 C-288.9946875 263.71987793 -288.489375 262.94756836 -287.96875 262.15185547 C-286.81407026 260.07535784 -286.81407026 260.07535784 -287.23168945 257.93701172 C-288.5759665 254.54791287 -290.39513535 251.41623235 -292.1875 248.25 C-292.62674805 247.46705566 -293.06599609 246.68411133 -293.51855469 245.87744141 C-297.20259481 239.34202033 -300.96962562 232.85503872 -304.75 226.375 C-305.33104492 225.37791016 -305.91208984 224.38082031 -306.51074219 223.35351562 C-309.65401201 217.97240231 -312.82861925 212.61242186 -316.04296875 207.2734375 C-317.02088379 205.6349585 -317.02088379 205.6349585 -318.01855469 203.96337891 C-319.27587145 201.85793321 -320.54311651 199.75837753 -321.82128906 197.66552734 C-322.38428711 196.71887207 -322.94728516 195.7722168 -323.52734375 194.796875 C-324.02999756 193.96510742 -324.53265137 193.13333984 -325.05053711 192.27636719 C-326 190 -326 190 -325.93164062 187.88305664 C-324.63475312 185.26175336 -323.10586391 184.50436405 -320.56640625 183.07421875 C-319.61991211 182.53224854 -318.67341797 181.99027832 -317.69824219 181.43188477 C-316.66344727 180.85623779 -315.62865234 180.28059082 -314.5625 179.6875 C-313.49805664 179.08156006 -312.43361328 178.47562012 -311.33691406 177.85131836 C-309.0667046 176.5591395 -306.7936559 175.27193848 -304.51806641 173.98925781 C-298.7352182 170.72705593 -292.99707847 167.3871558 -287.25 164.0625 C-285.17204223 162.86559504 -283.09392251 161.66897119 -281.015625 160.47265625 C-280.08946884 159.91476913 -279.16331268 159.35688202 -278.20909119 158.78208923 C-275 157 -275 157 -271.83642578 155.81503296 C-268.16216668 154.27082957 -265.78416646 152.87616115 -263 150 C-260.74447279 143.88976676 -261.46395942 136.9027248 -261.609375 130.50390625 C-261.60714201 128.80332899 -261.59951626 127.10275002 -261.58642578 125.40222168 C-261.57569075 119.12208693 -261.66907143 112.84212246 -261.75 106.5625 C-261.87375 85.4940625 -261.87375 85.4940625 -262 64 C-232.63 64 -203.26 64 -173 64 C-172.01 61.03 -172.01 61.03 -171 58 C-169.65193627 55.5365909 -168.27200455 53.14487439 -166.8125 50.75 C-165.914004 49.25081459 -165.01696781 47.75075368 -164.12109375 46.25 C-163.38028564 45.01056641 -163.38028564 45.01056641 -162.62451172 43.74609375 C-159.48841223 38.44479422 -156.44057627 33.09227351 -153.375 27.75 C-148.38710296 19.07545069 -143.33030609 10.46836158 -138 2 C-130.09461402 5.84383194 -122.43509571 9.95562337 -114.875 14.4375 C-112.79326587 15.66066206 -110.71122279 16.88329844 -108.62890625 18.10546875 C-107.55398926 18.73759277 -106.47907227 19.3697168 -105.37158203 20.02099609 C-100.10211262 23.1139953 -94.82244832 26.18914407 -89.53497314 29.25125122 C-87.84386968 30.23181079 -86.15506576 31.21633278 -84.46630859 32.20092773 C-83.43199707 32.79977783 -82.39768555 33.39862793 -81.33203125 34.015625 C-80.42171143 34.54446289 -79.5113916 35.07330078 -78.57348633 35.61816406 C-77.72423584 36.07416992 -76.87498535 36.53017578 -76 37 C-75.18257324 37.44883545 -74.36514648 37.8976709 -73.52294922 38.36010742 C-70.93788776 39.26891496 -70.93788776 39.26891496 -68.2746582 37.99633789 C-67.29327881 37.41102295 -66.31189941 36.82570801 -65.30078125 36.22265625 C-64.18654785 35.57103516 -63.07231445 34.91941406 -61.92431641 34.24804688 C-60.72023388 33.51976882 -59.51629868 32.79124714 -58.3125 32.0625 C-57.06536686 31.32564893 -55.81714033 30.59064554 -54.56787109 29.85742188 C-51.98595774 28.33929743 -49.40973046 26.8121388 -46.83740234 25.27783203 C-40.97150639 21.78567666 -35.04504554 18.39928563 -29.125 15 C-20.73421913 10.1663733 -20.73421913 10.1663733 -12.37109375 5.28515625 C-11.71157715 4.90037109 -11.05206055 4.51558594 -10.37255859 4.11914062 C-8.72624129 3.15808569 -7.08361423 2.19071627 -5.44140625 1.22265625 C-3 0 -3 0 0 0 Z M-242 84 C-242 197.52 -242 311.04 -242 428 C-128.48 428 -14.96 428 102 428 C102 314.48 102 200.96 102 84 C-11.52 84 -125.04 84 -242 84 Z " fill="#FEFEFE" transform="translate(326,0)"/>
<path d="M0 0 C96.8852459 0 96.8852459 0 109.41015625 11.14453125 C122.52212107 25.11317617 121.72310121 46.53954274 121.35546875 64.5625 C120.8219893 77.68956116 117.95362052 92.41351742 108.8515625 102.42578125 C105.22150707 105.5120942 99.89117385 109 95 109 C95.4626123 110.11084961 95.4626123 110.11084961 95.93457031 111.24414062 C101.09092154 123.86943228 105.68485915 136.70229616 110.31494141 149.52734375 C111.51738831 152.85795443 112.72426964 156.18693838 113.93243027 159.51548004 C114.87271715 162.10748328 115.81072564 164.70030651 116.7480545 167.29338074 C117.40596273 169.11225834 118.06572101 170.93046642 118.7255249 172.74865723 C119.12644348 173.86091675 119.52736206 174.97317627 119.94042969 176.11914062 C120.46621613 177.57350525 120.46621613 177.57350525 121.00262451 179.05725098 C122.11375966 182.33564703 123.04903219 185.67161267 124 189 C116.08 189 108.16 189 100 189 C98.845 185.473125 97.69 181.94625 96.5 178.3125 C93.40217553 168.92782469 90.16656242 159.59882751 86.83984375 150.29296875 C86.47851349 149.28180496 86.11718323 148.27064117 85.74490356 147.22883606 C83.91585179 142.11627187 82.07905265 137.00660415 80.234375 131.8996582 C79.55069797 129.99563537 78.86710066 128.09158391 78.18359375 126.1875 C77.86212875 125.30422531 77.54066376 124.42095062 77.2094574 123.51091003 C76.91789261 122.69648941 76.62632782 121.88206879 76.32592773 121.04296875 C76.0688353 120.33164795 75.81174286 119.62032715 75.54685974 118.88745117 C75 117 75 117 75 114 C57.51 114 40.02 114 22 114 C22 138.75 22 163.5 22 189 C14.74 189 7.48 189 0 189 C0 126.63 0 64.26 0 0 Z " fill="#FBFBFC" transform="translate(130,150)"/>
<path d="M0 0 C1.11516998 -0.00496994 1.11516998 -0.00496994 2.25286865 -0.01004028 C16.76557753 -0.0482917 31.25680355 0.34163596 42.91796875 10.1328125 C56.17350281 24.09493153 54.03097057 45.33668252 53.9453125 63.11328125 C53.94157596 65.40398535 53.93873202 67.69469106 53.93673706 69.98539734 C53.92915105 75.97431966 53.90954648 81.96314284 53.8873291 87.95202637 C53.86676152 94.07933207 53.85771214 100.206654 53.84765625 106.33398438 C53.82629526 118.32687317 53.79115484 130.31966278 53.75 142.3125 C47.48 142.3125 41.21 142.3125 34.75 142.3125 C33.625 132.1875 33.625 132.1875 33.6875 127.25 C33.69652344 126.31027344 33.70554687 125.37054688 33.71484375 124.40234375 C33.72644531 123.71269531 33.73804688 123.02304687 33.75 122.3125 C33.09 122.3125 32.43 122.3125 31.75 122.3125 C31.4715625 123.55 31.4715625 123.55 31.1875 124.8125 C28.33150465 131.76622781 23.52674357 136.57498406 16.65625 139.57421875 C16.0271875 139.81785156 15.398125 140.06148437 14.75 140.3125 C13.2340625 140.9003125 13.2340625 140.9003125 11.6875 141.5 C4.05053851 143.61235105 -3.62288058 143.56043345 -11.5 143.625 C-12.66402344 143.65400391 -13.82804687 143.68300781 -15.02734375 143.71289062 C-25.47239323 143.78891842 -34.77256872 141.8380504 -42.52734375 134.43359375 C-50.40625351 124.73235111 -50.44596319 113.4083614 -50.5 101.5 C-50.520625 100.37529297 -50.54125 99.25058594 -50.5625 98.09179688 C-50.60940594 88.00115677 -49.02123995 78.20099454 -42.25 70.3125 C-32.5932712 61.55135492 -20.48943859 61.99642141 -8.125 62.125 C-6.18246338 62.13466797 -6.18246338 62.13466797 -4.20068359 62.14453125 C8.12693233 62.24089957 20.43831485 62.69113173 32.75 63.3125 C32.66810286 59.35338406 32.55535639 55.39569579 32.4375 51.4375 C32.41494141 50.32890625 32.39238281 49.2203125 32.36914062 48.078125 C32.1056816 39.93484604 31.48969971 31.54540755 26.4375 24.8125 C18.93399112 17.83249174 7.08264803 19.15087842 -2.5 19.1875 C-3.73967529 19.19015869 -4.97935059 19.19281738 -6.2565918 19.19555664 C-18.61680601 19.2587782 -31.01610781 19.4094501 -43.25 21.3125 C-43.27684312 18.49993719 -43.29676188 15.68762759 -43.3125 12.875 C-43.32087891 12.07255859 -43.32925781 11.27011719 -43.33789062 10.44335938 C-43.3465143 8.39954779 -43.3022815 6.35566098 -43.25 4.3125 C-35.88820418 -3.04929582 -10.30775663 0.00668963 0 0 Z " fill="#FAFAFB" transform="translate(331.25,196.6875)"/>
<path d="M0 0 C8.91 -0.04125 17.82 -0.0825 27 -0.125 C29.79855469 -0.14320801 32.59710938 -0.16141602 35.48046875 -0.18017578 C37.71614389 -0.18602089 39.95182116 -0.19111641 42.1875 -0.1953125 C43.33412109 -0.20554443 44.48074219 -0.21577637 45.66210938 -0.22631836 C56.30092151 -0.22862313 64.78137948 1.24525686 72.8125 8.5625 C78.42020853 15.95805782 77.37271621 27.76241903 77.37060547 36.52514648 C77.37500286 38.56382441 77.41153135 40.6003708 77.44921875 42.63867188 C77.47760192 52.30314071 75.95984266 59.15662111 70.9375 67.375 C62.24331854 75.14426854 50.29219415 75.15039075 39.2578125 75.09765625 C38.26128662 75.09664917 37.26476074 75.09564209 36.23803711 75.09460449 C32.53367961 75.08939264 28.82933859 75.07543143 25.125 75.0625 C16.83375 75.041875 8.5425 75.02125 0 75 C0 50.25 0 25.5 0 0 Z " fill="#01033C" transform="translate(152,170)"/>
<path d="M0 0 C3.62138201 1.41792161 6.96563988 3.00154162 10.359375 4.90625 C11.38434082 5.48028564 12.40930664 6.05432129 13.46533203 6.64575195 C14.54927246 7.25765381 15.63321289 7.86955566 16.75 8.5 C17.86874512 9.1293042 18.98749023 9.7586084 20.14013672 10.40698242 C28.49410897 15.11921803 36.79511711 19.91116286 45.02832031 24.83105469 C47.12202538 26.07234491 49.22781395 27.29118867 51.3359375 28.5078125 C52.7240412 29.31756629 54.11206517 30.12745679 55.5 30.9375 C56.14211426 31.30335205 56.78422852 31.6692041 57.44580078 32.04614258 C61.88683051 34.66049153 61.88683051 34.66049153 63 38 C61.97460938 40.31469727 61.97460938 40.31469727 60.34375 43.06640625 C59.74038818 44.09701172 59.13702637 45.12761719 58.51538086 46.18945312 C57.85030518 47.30255859 57.18522949 48.41566406 56.5 49.5625 C55.81738052 50.72138135 55.13583585 51.88089641 54.45532227 53.04101562 C53.03174671 55.46613575 51.6034932 57.88841313 50.17236328 60.30908203 C48.04787648 63.90976818 45.95430686 67.52765329 43.87109375 71.15234375 C43.53892853 71.73021133 43.20676331 72.30807892 42.86453247 72.90345764 C41.88857389 74.60214363 40.91303313 76.30106964 39.9375 78 C29.10740561 96.83889159 29.10740561 96.83889159 25 103 C19.30835314 93.88552503 13.86928958 84.65505815 8.5625 75.3125 C7.83677917 74.03960484 7.1108684 72.76681795 6.38476562 71.49414062 C-0.12566796 60.06928307 -0.12566796 60.06928307 -0.11352539 54.26513672 C-0.11344986 53.06404266 -0.11337433 51.86294861 -0.11329651 50.62545776 C-0.10813522 49.32335358 -0.10297394 48.02124939 -0.09765625 46.6796875 C-0.09579138 45.33733167 -0.0943678 43.99497516 -0.09336853 42.65261841 C-0.08954878 39.11804325 -0.07972312 35.58350913 -0.06866455 32.0489502 C-0.05843878 28.44279536 -0.05386841 24.8366339 -0.04882812 21.23046875 C-0.03810038 14.15362904 -0.02103045 7.0768172 0 0 Z " fill="#222458" transform="translate(447,152)"/>
<path d="M0 0 C3.56669073 0.10381434 7.13412625 0.14828502 10.7019043 0.19836426 C17.6548571 0.30440222 24.60492348 0.47418639 31.55541992 0.68664551 C30.77721125 4.06611321 29.59575484 6.66988468 27.88745117 9.70227051 C27.33057617 10.69476807 26.77370117 11.68726563 26.19995117 12.70983887 C25.2930957 14.30710815 25.2930957 14.30710815 24.36791992 15.93664551 C23.7465918 17.03822998 23.12526367 18.13981445 22.48510742 19.27478027 C14.04326357 34.19556943 5.40459476 49.00379168 -3.44458008 63.68664551 C-14.29730482 58.60420751 -24.56200316 52.62477343 -34.87817383 46.54211426 C-39.45567118 43.84395355 -44.05230142 41.18322387 -48.66723633 38.54992676 C-49.86287638 37.86633656 -51.05851442 37.18274284 -52.25415039 36.49914551 C-54.551748 35.18595991 -56.85225634 33.87836724 -59.15454102 32.57336426 C-60.19513672 31.97781738 -61.23573242 31.38227051 -62.30786133 30.76867676 C-63.22865479 30.24507568 -64.14944824 29.72147461 -65.09814453 29.18200684 C-67.2019917 27.8412448 -68.78165612 26.53070386 -70.44458008 24.68664551 C-69.80657471 24.31491211 -69.16856934 23.94317871 -68.51123047 23.56018066 C-65.50963857 21.81102636 -62.50835979 20.06133543 -59.50708008 18.31164551 C-58.00371094 17.43572754 -58.00371094 17.43572754 -56.4699707 16.54211426 C-55.44194336 15.9427002 -54.41391602 15.34328613 -53.35473633 14.72570801 C-52.2391333 14.09745117 -51.12353027 13.46919434 -49.97412109 12.82189941 C-47.47524909 11.37325406 -45.22022393 9.77725586 -42.94433594 8.00061035 C-29.88343322 -1.66991383 -15.48935718 -0.49968573 0 0 Z " fill="#222458" transform="translate(328.444580078125,446.3133544921875)"/>
<path d="M0 0 C7.90526345 3.84377236 15.56569518 7.95441587 23.125 12.4375 C25.20521306 13.66363644 27.28596291 14.88886255 29.3671875 16.11328125 C30.44194336 16.74572754 31.51669922 17.37817383 32.62402344 18.02978516 C36.1347519 20.078641 39.661541 22.09676073 43.1953125 24.10546875 C44.38529745 24.78385918 45.57523928 25.46232524 46.76513672 26.14086914 C49.04717463 27.44198237 51.33305248 28.7353836 53.62158203 30.02514648 C54.65911621 30.61755127 55.69665039 31.20995605 56.765625 31.8203125 C58.13895996 32.59785889 58.13895996 32.59785889 59.54003906 33.39111328 C62.0440442 35.0288062 63.96883144 36.81290694 66 39 C65.21882813 39.47566406 64.43765625 39.95132813 63.6328125 40.44140625 C63.09374268 40.77084229 62.55467285 41.10027832 61.99926758 41.43969727 C60.6971342 42.21975607 59.38343497 42.98069952 58.0612793 43.72631836 C53.79661621 46.16293508 50.05740348 48.73959652 46.32421875 51.9375 C23.87820052 69.50123918 -8.09277223 64.29153288 -35 63 C-34.28516077 59.03165681 -33.20006489 56.22792717 -31.1484375 52.73828125 C-30.55135986 51.71379883 -29.95428223 50.68931641 -29.33911133 49.63378906 C-28.69095459 48.53776367 -28.04279785 47.44173828 -27.375 46.3125 C-26.36017829 44.57702564 -25.34536913 42.84154378 -24.33131409 41.10562134 C-23.27246025 39.29469263 -22.21068456 37.48549622 -21.14892578 35.67626953 C-19.01530495 32.03397168 -16.90852625 28.37664367 -14.80859375 24.71484375 C-14.3025058 23.83310234 -14.3025058 23.83310234 -13.78619385 22.93354797 C-12.16455998 20.10790912 -10.54423606 17.28152718 -8.92529297 14.4543457 C-6.09055164 9.5275544 -3.24418566 4.66905132 0 0 Z " fill="#222458" transform="translate(188,2)"/>
<path d="M0 0 C3.37774358 3.07686737 5.48495282 6.25809981 7.71484375 10.234375 C8.05246231 10.83123108 8.39008087 11.42808716 8.7379303 12.04302979 C9.81066626 13.9419324 10.87445873 15.84565612 11.9375 17.75 C12.99860026 19.63909285 14.06160296 21.5270883 15.12635803 23.41412354 C16.09676575 25.13577135 17.06208885 26.86028225 18.02709961 28.58496094 C19.77521796 31.79499581 19.77521796 31.79499581 21.3351593 33.70471191 C26.10939455 40.07820126 25.64231338 46.4073443 25.48828125 54.125 C25.47893908 55.48118782 25.47182961 56.83739269 25.46684265 58.19360352 C25.44788232 61.73842131 25.39888087 65.28219127 25.34332275 68.82659912 C25.29189007 72.45326569 25.26927781 76.08010397 25.24414062 79.70703125 C25.19074784 86.80511243 25.10557215 93.90248729 25 101 C21.23283763 99.53028926 17.80946736 97.8497922 14.30078125 95.83203125 C13.18566162 95.19281738 12.07054199 94.55360352 10.92163086 93.89501953 C9.71852782 93.20094934 8.51548559 92.50677374 7.3125 91.8125 C6.07249248 91.09984447 4.83233744 90.38744557 3.59204102 89.67529297 C0.3722389 87.82542619 -2.84518839 85.97146717 -6.06213379 84.11663818 C-8.60002468 82.65425349 -11.13962664 81.19485621 -13.67930603 79.73558044 C-16.64116712 78.03343608 -19.60186032 76.32926808 -22.5625 74.625 C-23.66746826 73.98925049 -24.77243652 73.35350098 -25.91088867 72.69848633 C-26.93158447 72.10962646 -27.95228027 71.5207666 -29.00390625 70.9140625 C-29.89924072 70.3979541 -30.7945752 69.8818457 -31.71704102 69.35009766 C-33.51188064 68.28866432 -35.26500255 67.15666497 -37 66 C-36.41933397 62.19439766 -35.33578266 59.473423 -33.3671875 56.17578125 C-32.81546875 55.2420166 -32.26375 54.30825195 -31.6953125 53.34619141 C-31.09460938 52.34507324 -30.49390625 51.34395508 -29.875 50.3125 C-28.60079087 48.16061297 -27.32738199 46.00825193 -26.0546875 43.85546875 C-25.39049805 42.73575684 -24.72630859 41.61604492 -24.04199219 40.46240234 C-20.01277741 33.6492042 -16.09429349 26.7710626 -12.15185547 19.9074707 C-1.63473833 1.63473833 -1.63473833 1.63473833 0 0 Z " fill="#222458" transform="translate(40,259)"/>
<path d="M0 0 C0 36.96 0 73.92 0 112 C-4.49350096 106.3831238 -4.49350096 106.3831238 -6.0859375 103.41796875 C-6.63447388 102.41056641 -6.63447388 102.41056641 -7.1940918 101.3828125 C-7.5837915 100.65835938 -7.97349121 99.93390625 -8.375 99.1875 C-12.36550326 91.88954581 -16.48160226 84.67590861 -20.6875 77.5 C-26.4528971 67.65999643 -32.16910061 57.79305974 -37.8503418 47.90429688 C-41.13138096 42.2025378 -44.46447769 36.54630341 -47.93359375 30.95654297 C-49 29 -49 29 -49 27 C-48.00685791 26.46125244 -48.00685791 26.46125244 -46.99365234 25.91162109 C-40.17346597 22.2029428 -33.38584668 18.44073109 -26.625 14.625 C-25.62637939 14.06208252 -24.62775879 13.49916504 -23.59887695 12.91918945 C-17.03577544 9.20178485 -10.58115966 5.36177336 -4.23046875 1.29296875 C-2 0 -2 0 0 0 Z " fill="#232559" transform="translate(65,164)"/>
<path d="M0 0 C36.63 0 73.26 0 111 0 C105.3831238 4.49350096 105.3831238 4.49350096 102.41796875 6.0859375 C101.74636719 6.45162842 101.07476562 6.81731934 100.3828125 7.1940918 C99.65835938 7.5837915 98.93390625 7.97349121 98.1875 8.375 C90.88954821 12.36550194 83.67586327 16.4815275 76.5 20.6875 C70.00080225 24.49628566 63.49818809 28.2979746 56.96875 32.0546875 C56.38484497 32.39073502 55.80093994 32.72678253 55.19934082 33.07301331 C52.37690139 34.69679891 49.5533388 36.31859687 46.72851562 37.93823242 C41.60211721 40.8857502 36.53563774 43.85859101 31.62109375 47.15014648 C30 48 30 48 27 48 C26.64397705 47.35788574 26.2879541 46.71577148 25.92114258 46.05419922 C18.75357581 33.14501372 11.5043832 20.30987373 3.91333008 7.64404297 C3.39794678 6.78182129 2.88256348 5.91959961 2.3515625 5.03125 C1.89604004 4.27392578 1.44051758 3.51660156 0.97119141 2.73632812 C0 1 0 1 0 0 Z " fill="#222458" transform="translate(164,448)"/>
<path d="M0 0 C2.81219427 2.81219427 4.33343385 5.07635507 6.265625 8.50390625 C6.90064941 9.6237793 7.53567383 10.74365234 8.18994141 11.89746094 C8.52519836 12.49393433 8.86045532 13.09040771 9.20587158 13.70495605 C10.26618238 15.59128907 11.33219367 17.47429084 12.39990234 19.35644531 C13.50645894 21.30713145 14.61271097 23.25798158 15.71725464 25.20980835 C19.32013982 31.57569992 22.96739809 37.91537356 26.625 44.25 C27.22989258 45.3013916 27.83478516 46.3527832 28.45800781 47.43603516 C31.29376078 52.3566337 34.14722879 57.26455221 37.06063843 62.13967896 C38.06842691 63.82616561 39.07209276 65.51511361 40.07568359 67.20410156 C41.33297169 69.31670288 42.59858512 71.42437763 43.87353516 73.52636719 C44.43089355 74.46512695 44.98825195 75.40388672 45.5625 76.37109375 C46.05878906 77.19536865 46.55507813 78.01964355 47.06640625 78.86889648 C48 81 48 81 47 84 C44.90893555 85.43530273 44.90893555 85.43530273 42.13671875 86.93359375 C41.11328369 87.49481934 40.08984863 88.05604492 39.03540039 88.63427734 C37.3781897 89.52687256 37.3781897 89.52687256 35.6875 90.4375 C26.32709417 95.56326012 17.10357403 100.84030121 8.02026367 106.44311523 C7.25174072 106.91305908 6.48321777 107.38300293 5.69140625 107.8671875 C5.02310791 108.28081543 4.35480957 108.69444336 3.66625977 109.12060547 C2 110 2 110 0 110 C0 73.7 0 37.4 0 0 Z " fill="#222458" transform="translate(448,238)"/>
<path d="M0 0 C1.09848267 0.00565979 2.19696533 0.01131958 3.32873535 0.01715088 C6.8133632 0.03941747 10.29693656 0.08959748 13.78125 0.140625 C16.15363091 0.16070248 18.52602805 0.17895106 20.8984375 0.1953125 C26.6930639 0.23925035 32.48708159 0.30606519 38.28125 0.390625 C38.31602696 3.74867164 38.33693687 7.10667126 38.35546875 10.46484375 C38.3654187 11.40936401 38.37536865 12.35388428 38.38562012 13.32702637 C38.43161568 24.45069075 36.73931693 34.62090873 28.82421875 42.91796875 C20.8543665 49.60799071 9.27911578 48.60721881 -0.53125 48.765625 C-1.52189453 48.79180908 -2.51253906 48.81799316 -3.53320312 48.8449707 C-9.82944904 48.859319 -13.60648627 48.14187547 -18.71875 44.390625 C-24.04026566 37.66871048 -23.94976695 31.89757397 -24.03125 23.640625 C-24.06025391 22.67640625 -24.08925781 21.7121875 -24.11914062 20.71875 C-24.17454874 14.44484637 -23.67965182 9.42885789 -19.71875 4.390625 C-13.70196705 -0.20746766 -7.27840339 -0.14278208 0 0 Z " fill="#01033C" transform="translate(325.71875,274.609375)"/>
<path d="M0 0 C0.66 0 1.32 0 2 0 C2.42708252 0.74870361 2.85416504 1.49740723 3.29418945 2.26879883 C4.93300149 5.14106381 6.5722493 8.01307895 8.21191406 10.88485718 C8.94361108 12.16640227 9.67521965 13.44799786 10.40673828 14.72964478 C15.52911029 23.70277191 20.67482521 32.66141687 25.8996582 41.57543945 C29 46.89246239 29 46.89246239 29 48 C-7.3 48 -43.6 48 -81 48 C-77.95656937 45.71742703 -75.11311095 43.83064183 -71.8359375 41.953125 C-70.29655518 41.06838501 -70.29655518 41.06838501 -68.72607422 40.16577148 C-67.62021973 39.53356689 -66.51436523 38.9013623 -65.375 38.25 C-64.2096351 37.58109459 -63.04443611 36.91190004 -61.87939453 36.24243164 C-59.45802069 34.85137822 -57.03593877 33.46157042 -54.61328125 32.07275391 C-40.1940147 23.80444087 -25.80407968 15.48450104 -11.4375 7.125 C-9.88361572 6.22285767 -9.88361572 6.22285767 -8.29833984 5.30249023 C-7.35297363 4.75149658 -6.40760742 4.20050293 -5.43359375 3.6328125 C-4.18147095 2.90408936 -4.18147095 2.90408936 -2.90405273 2.16064453 C-1.06153903 1.14011742 -1.06153903 1.14011742 0 0 Z " fill="#222458" transform="translate(319,16)"/>
<path d="M0 0 C2.77239749 3.4059107 5.09561154 6.71575535 7.20703125 10.5703125 C7.79419922 11.6325 8.38136719 12.6946875 8.98632812 13.7890625 C9.58896484 14.88992187 10.19160156 15.99078125 10.8125 17.125 C14.77950831 24.35819291 18.84467773 31.45209946 23.32299805 38.38183594 C25.98978426 42.54526808 28.49532299 46.80021823 31 51.0625 C31.54833496 51.99296143 32.09666992 52.92342285 32.66162109 53.88208008 C37.6634623 62.38886625 42.61007466 70.9277154 47.51757812 79.48925781 C50.44115603 84.58791645 53.38597907 89.66726888 56.4296875 94.6953125 C56.95095215 95.56518799 57.4722168 96.43506348 58.00927734 97.33129883 C58.9742003 98.93734403 59.95041006 100.53668423 60.93994141 102.12768555 C61.36194824 102.83449463 61.78395508 103.54130371 62.21875 104.26953125 C62.58935547 104.87385986 62.95996094 105.47818848 63.34179688 106.10083008 C64.28231085 108.8145757 63.98902902 110.31819442 63 113 C60.97241211 114.63061523 60.97241211 114.63061523 58.27734375 116.05859375 C57.27533936 116.60249756 56.27333496 117.14640137 55.2409668 117.70678711 C54.15082275 118.27792236 53.06067871 118.84905762 51.9375 119.4375 C49.64989906 120.67497343 47.36347029 121.91461582 45.078125 123.15625 C44.49222092 123.47194443 43.90631683 123.78763885 43.30265808 124.11289978 C37.18317253 127.4156532 31.18160861 130.91298901 25.1875 134.4375 C24.24189209 134.99171631 23.29628418 135.54593262 22.32202148 136.11694336 C21.40493408 136.65456299 20.48784668 137.19218262 19.54296875 137.74609375 C18.64755371 138.27058105 17.75213867 138.79506836 16.82958984 139.33544922 C14.78425623 140.53864893 12.74347312 141.74959548 10.70556641 142.96533203 C9.6232373 143.60712402 8.5409082 144.24891602 7.42578125 144.91015625 C6.43618408 145.50062744 5.44658691 146.09109863 4.42700195 146.69946289 C2 148 2 148 0 148 C-1.3895209 135.29593629 -1.14520739 122.54600802 -1.1328125 109.78515625 C-1.13348771 107.32295217 -1.13445954 104.86074816 -1.13571167 102.39854431 C-1.13718091 97.24868126 -1.13506071 92.09883562 -1.13037109 86.94897461 C-1.12470144 80.41045 -1.12794019 73.87196671 -1.13394356 67.33344364 C-1.13759338 62.24818116 -1.13639004 57.16292813 -1.13381577 52.07766533 C-1.13315724 49.67039421 -1.13393646 47.26312218 -1.13629532 44.85585213 C-1.14774821 29.8739505 -0.82457506 14.96007198 0 0 Z M0 24 C0 60.3 0 96.6 0 134 C3.98857442 132.40457023 7.38447522 130.74241455 11.0859375 128.62109375 C11.94794266 128.12845787 11.94794266 128.12845787 12.82736206 127.62586975 C14.67854123 126.56646826 16.52686346 125.50219907 18.375 124.4375 C19.64153996 123.71083013 20.90814166 122.98426785 22.17480469 122.2578125 C30.84641858 117.27654155 39.47084072 112.22193425 48 107 C46.65544302 103.45565573 45.08771656 100.19200807 43.234375 96.88671875 C42.68144775 95.89873291 42.12852051 94.91074707 41.55883789 93.89282227 C40.66346313 92.30618774 40.66346313 92.30618774 39.75 90.6875 C39.12665771 89.57882568 38.50331543 88.47015137 37.86108398 87.32788086 C32.5378249 77.88994783 27.09455375 68.52429319 21.609375 59.1796875 C19.00828383 54.74227782 16.44055158 50.28720146 13.890625 45.8203125 C13.20308644 44.61838371 12.51550542 43.4164792 11.82788086 42.21459961 C10.50859885 39.9082631 9.19534434 37.59882022 7.88500977 35.28735352 C7.29002686 34.24764404 6.69504395 33.20793457 6.08203125 32.13671875 C5.29662964 30.75552856 5.29662964 30.75552856 4.49536133 29.34643555 C2.94788978 26.73160317 2.94788978 26.73160317 0 24 Z " fill="#A1A2B7" transform="translate(448,214)"/>
<path d="M0 0 C1.52418401 2.64191896 3.04836118 5.28384186 4.57250977 7.92578125 C5.91272941 10.24876287 7.25304442 12.57168918 8.59350586 14.89453125 C11.76804018 20.39588274 14.94188764 25.89762129 18.11073303 31.4022522 C19.11578067 33.14804826 20.12119178 34.89363451 21.12670898 36.63916016 C22.38474962 38.82331798 23.64211197 41.00786668 24.89868164 43.19287109 C28.16394848 48.85990802 31.48299914 54.48115656 34.93139648 60.0390625 C36 62 36 62 36 64 C23.28459354 65.39164029 10.52228941 65.14520264 -2.25 65.1328125 C-4.71459971 65.13348767 -7.17919935 65.13445947 -9.64379883 65.13571167 C-14.79785804 65.13718082 -19.95189985 65.1350608 -25.10595703 65.13037109 C-31.65354819 65.12469841 -38.20109812 65.12794219 -44.74868774 65.13394356 C-49.83819885 65.137591 -54.9277005 65.13639116 -60.01721191 65.13381577 C-62.42810064 65.13315675 -64.83899027 65.13393827 -67.24987793 65.13629532 C-81.86497216 65.14744348 -96.40853819 64.85145991 -111 64 C-107.42659697 61.0880307 -103.90506989 58.6794393 -99.87890625 56.42578125 C-98.69204223 55.75653712 -97.50519385 55.08726527 -96.31835938 54.41796875 C-95.3983313 53.90242432 -95.3983313 53.90242432 -94.4597168 53.37646484 C-91.25942694 51.58173274 -88.0687678 49.77021217 -84.87890625 47.95703125 C-84.29573135 47.62834549 -83.71255646 47.29965973 -83.11170959 46.96101379 C-77.89272116 43.99858904 -72.89609738 40.75294877 -67.890625 37.4453125 C-59.36985086 31.97173401 -50.394159 27.16765412 -41.58528137 22.17443848 C-34.93271258 18.40084996 -28.30916996 14.57747285 -21.6875 10.75 C-15.49481693 7.17157102 -15.49481693 7.17157102 -12.55224609 5.47851562 C-10.97012044 4.56199057 -9.39368272 3.63547404 -7.82666016 2.69335938 C-3.31139175 0 -3.31139175 0 0 0 Z M-12.80078125 19.52734375 C-19.49550142 23.72226183 -26.3137215 27.66726039 -33.1875 31.5625 C-35.64255646 32.95853047 -38.09665378 34.3562435 -40.55078125 35.75390625 C-41.16840332 36.10538727 -41.78602539 36.45686829 -42.42236328 36.81900024 C-48.9217459 40.51978996 -55.39935731 44.25784438 -61.875 48 C-70.57022895 53.02321547 -79.27240284 58.0332038 -88 63 C-88 63.33 -88 63.66 -88 64 C-51.7 64 -15.4 64 22 64 C17.49138743 54.85973818 17.49138743 54.85973818 12.59765625 46 C12.01693359 45.01 11.43621094 44.02 10.83789062 43 C10.25201172 42.01 9.66613281 41.02 9.0625 40 C7.88671875 38 6.7109375 36 5.53515625 34 C4.95781738 33.02546875 4.38047852 32.0509375 3.78564453 31.046875 C2.5283219 28.90148445 1.29152704 26.74399734 0.06982422 24.578125 C-0.55263184 23.47984375 -1.17508789 22.3815625 -1.81640625 21.25 C-2.66054077 19.74179687 -2.66054077 19.74179687 -3.52172852 18.203125 C-4.00955811 17.47609375 -4.4973877 16.7490625 -5 16 C-8.16923334 16 -10.15195594 17.8493467 -12.80078125 19.52734375 Z " fill="#A0A1B7" transform="translate(326,0)"/>
<path d="M0 0 C2.46317047 -0.00067529 4.92634087 -0.00164719 7.38951111 -0.00289917 C12.53759397 -0.00436748 17.68565941 -0.00225086 22.83374023 0.00244141 C29.37345564 0.00811701 35.91312979 0.0048679 42.45284367 -0.00113106 C47.53806355 -0.00477823 52.62327398 -0.00357883 57.70849419 -0.00100327 C60.11659182 -0.00034434 62.52469037 -0.00112546 64.93278694 -0.00348282 C79.5376847 -0.01463898 94.07105309 0.28223266 108.65234375 1.1328125 C105.52327745 3.52115992 102.34583602 5.54032707 98.92578125 7.49609375 C97.81074219 8.13611328 96.69570313 8.77613281 95.546875 9.43554688 C94.37378776 10.10562606 93.20061022 10.77554718 92.02734375 11.4453125 C82.03948895 17.16316143 72.13487392 22.9738285 62.3515625 29.03515625 C55.80485422 33.07119185 49.15583054 36.90456853 42.46484375 40.6953125 C40.02144672 42.08212344 37.57886895 43.47036971 35.13671875 44.859375 C34.52095474 45.20941086 33.90519073 45.55944672 33.27076721 45.92008972 C28.90600787 48.4060124 24.56387863 50.92864217 20.23046875 53.46875 C19.0393677 54.16473666 17.84820662 54.86062061 16.65698242 55.55639648 C14.40641905 56.87314925 12.1590374 58.19535923 9.9152832 59.52368164 C8.90167725 60.11528076 7.88807129 60.70687988 6.84375 61.31640625 C5.95888916 61.83775146 5.07402832 62.35909668 4.16235352 62.89624023 C1.63102549 64.14331508 -0.56765631 64.71882306 -3.34765625 65.1328125 C-4.87184026 62.49089354 -6.39601743 59.84897064 -7.92016602 57.20703125 C-9.26038566 54.88404963 -10.60070067 52.56112332 -11.94116211 50.23828125 C-15.11569643 44.73692976 -18.28954389 39.23519121 -21.45838928 33.7305603 C-22.46343692 31.98476424 -23.46884803 30.23917799 -24.47436523 28.49365234 C-25.73240587 26.30949452 -26.98976822 24.12494582 -28.24633789 21.93994141 C-31.51160473 16.27290448 -34.83065539 10.65165594 -38.27905273 5.09375 C-39.34765625 3.1328125 -39.34765625 3.1328125 -39.34765625 1.1328125 C-26.24821975 -0.15869291 -13.14807513 -0.01278343 0 0 Z M-25.34765625 1.1328125 C-21.07311258 8.96947589 -16.77173142 16.78281361 -12.41015625 24.5703125 C-11.82814453 25.61251953 -11.24613281 26.65472656 -10.64648438 27.72851562 C-6.62590587 34.91034633 -2.51745098 42.03662329 1.65234375 49.1328125 C5.2929866 48.45295288 8.05988782 46.90650705 11.25390625 45.0625 C12.92864014 44.10041626 12.92864014 44.10041626 14.63720703 43.11889648 C15.8506422 42.41529884 17.06401958 41.71160153 18.27734375 41.0078125 C19.53865184 40.28090106 20.80021164 39.55442622 22.06201172 38.82836914 C25.3043374 36.96125588 28.54341201 35.08857757 31.78173828 33.21453857 C34.64281249 31.56004829 37.50699452 29.9109654 40.37109375 28.26171875 C45.68990943 25.19784589 51.00562753 22.12864852 56.3203125 19.05761719 C61.71574455 15.94085383 67.11327228 12.82772434 72.51068115 9.71438599 C75.30017306 8.10530837 78.08953464 6.49600488 80.87890625 4.88671875 C82.47005208 3.96875 84.06119792 3.05078125 85.65234375 2.1328125 C85.65234375 1.8028125 85.65234375 1.4728125 85.65234375 1.1328125 C49.02234375 1.1328125 12.39234375 1.1328125 -25.34765625 1.1328125 Z " fill="#A1A2B7" transform="translate(189.34765625,446.8671875)"/>
<path d="M0 0 C1.32696214 4.04231987 2.01695269 7.80950139 1.04003906 12.02001953 C-2.70524703 19.1501299 -13.7766396 22.77662164 -20.61572266 26.23583984 C-25.99410087 29.03948729 -31.13742086 32.21641722 -36.3125 35.375 C-38.11665318 36.47347253 -39.92490202 37.56526329 -41.73828125 38.6484375 C-42.49149658 39.10395996 -43.24471191 39.55948242 -44.02075195 40.02880859 C-46 41 -46 41 -49 41 C-48.43623657 41.97718994 -48.43623657 41.97718994 -47.86108398 42.97412109 C-41.97119141 53.18326823 -36.08129883 63.39241536 -30.19140625 73.6015625 C-29.58022949 74.66093018 -28.96905273 75.72029785 -28.33935547 76.81176758 C-27.11049555 78.94180232 -25.88165448 81.07184794 -24.65283203 83.2019043 C-21.73745784 88.25539815 -18.82190285 93.30878741 -15.90567017 98.36178589 C-14.87326522 100.15066918 -13.84092044 101.93958717 -12.80859375 103.72851562 C-11.51314052 105.97337636 -10.2175743 108.2181719 -8.921875 110.46289062 C-7.77241016 112.45487531 -6.6292274 114.45050403 -5.49365234 116.45043945 C-4.08981097 118.92346136 -4.08981097 118.92346136 -2.69775391 120.86791992 C0.97159413 126.24742025 0.45140874 131.69770228 0.25 137.9375 C0.23195313 139.00291016 0.21390625 140.06832031 0.1953125 141.16601562 C0.14845557 143.77828929 0.08286926 146.38866226 0 149 C-2.96008771 146.39946458 -4.62903453 143.38702456 -6.546875 139.96875 C-6.88116516 139.37759399 -7.21545532 138.78643799 -7.55987549 138.17736816 C-8.62791924 136.28749906 -9.68946372 134.39409076 -10.75 132.5 C-15.09852898 124.75266723 -19.50523311 117.08943719 -24.32910156 109.62353516 C-27.18510918 105.13921928 -29.83682413 100.5380623 -32.5 95.9375 C-33.09458008 94.91454834 -33.68916016 93.89159668 -34.30175781 92.83764648 C-39.43660345 83.99512053 -44.54992122 75.13988653 -49.63867188 66.27075195 C-52.44351514 61.38936004 -55.26745844 56.52672539 -58.203125 51.72265625 C-58.68040039 50.93624756 -59.15767578 50.14983887 -59.64941406 49.33959961 C-60.52086681 47.91065025 -61.40234837 46.48774629 -62.29589844 45.07250977 C-65.03527275 40.56800824 -65.03527275 40.56800824 -64.87475586 37.9831543 C-63.66147982 35.23254271 -62.17264526 34.54197328 -59.56640625 33.07421875 C-58.61991211 32.53224854 -57.67341797 31.99027832 -56.69824219 31.43188477 C-55.66344727 30.85623779 -54.62865234 30.28059082 -53.5625 29.6875 C-52.49805664 29.08156006 -51.43361328 28.47562012 -50.33691406 27.85131836 C-48.0667046 26.5591395 -45.7936559 25.27193848 -43.51806641 23.98925781 C-37.7352182 20.72705593 -31.99707847 17.3871558 -26.25 14.0625 C-23.17840651 12.29326026 -20.10636478 10.52481528 -17.03320312 8.75830078 C-14.89470647 7.51864746 -12.76386024 6.26575022 -10.63867188 5.00341797 C-9.55650391 4.36162598 -8.47433594 3.71983398 -7.359375 3.05859375 C-6.37936523 2.47263428 -5.39935547 1.8866748 -4.38964844 1.28295898 C-2 0 -2 0 0 0 Z " fill="#A1A2B7" transform="translate(65,150)"/>
<path d="M0 0 C20.13 0 40.26 0 61 0 C60.10360206 3.58559176 59.11761713 5.84605661 57.33203125 9.015625 C56.77515625 10.00812256 56.21828125 11.00062012 55.64453125 12.02319336 C54.73767578 13.62046265 54.73767578 13.62046265 53.8125 15.25 C53.19117188 16.35158447 52.56984375 17.45316895 51.9296875 18.58813477 C43.48784365 33.50892392 34.84917484 48.31714617 26 63 C15.14727526 57.91756201 4.88257692 51.93812792 -5.43359375 45.85546875 C-10.0110911 43.15730804 -14.60772134 40.49657836 -19.22265625 37.86328125 C-20.4182963 37.17969105 -21.61393434 36.49609734 -22.80957031 35.8125 C-25.10716792 34.49931441 -27.40767626 33.19172174 -29.70996094 31.88671875 C-30.75055664 31.29117187 -31.79115234 30.695625 -32.86328125 30.08203125 C-33.78407471 29.55843018 -34.70486816 29.0348291 -35.65356445 28.49536133 C-38 27 -38 27 -41 24 C-36.545 21.525 -36.545 21.525 -32 19 C-32 19.66 -32 20.32 -32 21 C-30.73929687 21.36544922 -30.73929687 21.36544922 -29.453125 21.73828125 C-25.59287039 23.1487589 -22.24163473 25.05955827 -18.75 27.1875 C-17.26383474 28.07818239 -15.77679256 28.96740256 -14.2890625 29.85546875 C-13.46438477 30.34837402 -12.63970703 30.8412793 -11.79003906 31.34912109 C-5.68462116 34.96172486 0.478756 38.47601806 6.63098145 42.00814819 C8.29352683 42.96293588 9.95537025 43.91894555 11.6171875 44.875 C12.58253418 45.42929687 13.54788086 45.98359375 14.54248047 46.5546875 C16.39689593 47.64530339 18.20996997 48.80664665 20 50 C20.99 50 21.98 50 23 50 C23.55945313 48.9790625 24.11890625 47.958125 24.6953125 46.90625 C31.40283587 34.72305203 38.37415306 22.70270547 45.41943359 10.7121582 C47.29941325 7.48622463 49.1475358 4.24181235 51 1 C34.17 1 17.34 1 0 1 C0 0.67 0 0.34 0 0 Z " fill="#53557E" transform="translate(299,447)"/>
<path d="M0 0 C3.71229983 1.48491993 6.90600693 2.96807308 10.359375 4.90625 C11.38434082 5.48028564 12.40930664 6.05432129 13.46533203 6.64575195 C14.54927246 7.25765381 15.63321289 7.86955566 16.75 8.5 C17.86874512 9.1293042 18.98749023 9.7586084 20.14013672 10.40698242 C28.49410897 15.11921803 36.79511711 19.91116286 45.02832031 24.83105469 C47.12202538 26.07234491 49.22781395 27.29118867 51.3359375 28.5078125 C52.7240412 29.31756629 54.11206517 30.12745679 55.5 30.9375 C56.14211426 31.30335205 56.78422852 31.6692041 57.44580078 32.04614258 C61.88683051 34.66049153 61.88683051 34.66049153 63 38 C61.97460938 40.31469727 61.97460938 40.31469727 60.34375 43.06640625 C59.74038818 44.09701172 59.13702637 45.12761719 58.51538086 46.18945312 C57.85030518 47.30255859 57.18522949 48.41566406 56.5 49.5625 C55.81738052 50.72138135 55.13583585 51.88089641 54.45532227 53.04101562 C53.03174671 55.46613575 51.6034932 57.88841313 50.17236328 60.30908203 C48.04787648 63.90976818 45.95430686 67.52765329 43.87109375 71.15234375 C43.53892853 71.73021133 43.20676331 72.30807892 42.86453247 72.90345764 C41.88857389 74.60214363 40.91303313 76.30106964 39.9375 78 C29.10740561 96.83889159 29.10740561 96.83889159 25 103 C22.5744292 100.53085608 21.03489366 98.32081587 20 95 C20.86987305 92.31762695 20.86987305 92.31762695 22.44921875 89.42578125 C23.01833984 88.3692334 23.58746094 87.31268555 24.17382812 86.22412109 C24.77646484 85.16016113 25.37910156 84.09620117 26 83 C26.54076172 82.03787598 27.08152344 81.07575195 27.63867188 80.08447266 C29.29590954 77.18630102 30.98610415 74.30994928 32.6875 71.4375 C33.91305592 69.35303829 35.13831201 67.26840028 36.36328125 65.18359375 C36.96994629 64.15347168 37.57661133 63.12334961 38.20166016 62.06201172 C40.94735575 57.3869487 43.66254722 52.69440449 46.375 48 C46.84510498 47.18716553 47.31520996 46.37433105 47.79956055 45.53686523 C48.86677233 43.69147397 49.93345462 41.8457765 51 40 C47.50012598 37.06895608 43.95853441 34.70202801 39.984375 32.4609375 C39.1232309 31.97229721 39.1232309 31.97229721 38.24468994 31.4737854 C36.41543606 30.43670984 34.58294035 29.40554353 32.75 28.375 C22.09746319 22.36175406 11.5462325 16.20366618 1 10 C1 26.5 1 43 1 60 C0.67 60 0.34 60 0 60 C0 40.2 0 20.4 0 0 Z " fill="#53557E" transform="translate(447,152)"/>
<path d="M0 0 C7.90526345 3.84377236 15.56569518 7.95441587 23.125 12.4375 C25.20521306 13.66363644 27.28596291 14.88886255 29.3671875 16.11328125 C30.44194336 16.74572754 31.51669922 17.37817383 32.62402344 18.02978516 C36.1347519 20.078641 39.661541 22.09676073 43.1953125 24.10546875 C44.38529745 24.78385918 45.57523928 25.46232524 46.76513672 26.14086914 C49.04717463 27.44198237 51.33305248 28.7353836 53.62158203 30.02514648 C54.65911621 30.61755127 55.69665039 31.20995605 56.765625 31.8203125 C58.13895996 32.59785889 58.13895996 32.59785889 59.54003906 33.39111328 C62.0440442 35.0288062 63.96883144 36.81290694 66 39 C63.03 40.65 60.06 42.3 57 44 C56.01 43.01 55.02 42.02 54 41 C52.29263631 39.91504145 50.55217425 38.88152259 48.79296875 37.8828125 C47.74117432 37.28154541 46.68937988 36.68027832 45.60571289 36.06079102 C44.47770264 35.42197998 43.34969238 34.78316895 42.1875 34.125 C39.83457264 32.78493721 37.48351245 31.44162171 35.1328125 30.09765625 C34.53813675 29.75816452 33.943461 29.41867279 33.33076477 29.06889343 C29.3585152 26.79548835 25.41773325 24.47461219 21.4921875 22.12109375 C20.49034424 21.52087402 19.48850098 20.9206543 18.45629883 20.30224609 C16.55723089 19.16053023 14.66112144 18.01387588 12.76831055 16.86181641 C11.91793213 16.35183105 11.06755371 15.8418457 10.19140625 15.31640625 C9.08067749 14.64266968 9.08067749 14.64266968 7.94750977 13.95532227 C5.91263341 12.77979863 5.91263341 12.77979863 3 13 C2.36723145 14.10734497 2.36723145 14.10734497 1.72167969 15.23706055 C-7.18554688 30.82470703 -16.09277344 46.41235352 -25 62 C-8.5 62 8 62 25 62 C25 62.33 25 62.66 25 63 C5.2 63 -14.6 63 -35 63 C-34.11921387 58.59606936 -33.34180565 56.46901629 -31.1484375 52.73828125 C-30.55135986 51.71379883 -29.95428223 50.68931641 -29.33911133 49.63378906 C-28.69095459 48.53776367 -28.04279785 47.44173828 -27.375 46.3125 C-26.36017829 44.57702564 -25.34536913 42.84154378 -24.33131409 41.10562134 C-23.27246025 39.29469263 -22.21068456 37.48549622 -21.14892578 35.67626953 C-19.01530495 32.03397168 -16.90852625 28.37664367 -14.80859375 24.71484375 C-14.3025058 23.83310234 -14.3025058 23.83310234 -13.78619385 22.93354797 C-12.16455998 20.10790912 -10.54423606 17.28152718 -8.92529297 14.4543457 C-6.09055164 9.5275544 -3.24418566 4.66905132 0 0 Z " fill="#53557E" transform="translate(188,2)"/>
<path d="M0 0 C2.69378051 2.51419515 4.44805246 4.67240077 6 8 C5.63793457 8.52424561 5.27586914 9.04849121 4.90283203 9.58862305 C0.88854708 15.49270388 -2.66599299 21.5704943 -6.125 27.8125 C-11.03923069 36.61283468 -16.10913423 45.29638975 -21.39306641 53.88012695 C-21.8679248 54.65831787 -22.3427832 55.43650879 -22.83203125 56.23828125 C-23.25202393 56.91930908 -23.6720166 57.60033691 -24.10473633 58.30200195 C-25.15546369 59.97493358 -25.15546369 59.97493358 -25 62 C-12.34510136 69.3121873 0.31177677 76.62073661 13 83.875 C14.32390747 84.63248535 14.32390747 84.63248535 15.67456055 85.40527344 C16.48320557 85.86708008 17.29185059 86.32888672 18.125 86.8046875 C19.18074219 87.40772705 19.18074219 87.40772705 20.2578125 88.02294922 C21.48829684 88.71302746 22.73816018 89.36908009 24 90 C24 73.5 24 57 24 40 C24.33 40 24.66 40 25 40 C25 60.13 25 80.26 25 101 C21.13650609 99.45460244 17.87579302 97.88793449 14.30078125 95.83203125 C13.18566162 95.19281738 12.07054199 94.55360352 10.92163086 93.89501953 C9.71852782 93.20094934 8.51548559 92.50677374 7.3125 91.8125 C6.07249248 91.09984447 4.83233744 90.38744557 3.59204102 89.67529297 C0.3722389 87.82542619 -2.84518839 85.97146717 -6.06213379 84.11663818 C-8.60002468 82.65425349 -11.13962664 81.19485621 -13.67930603 79.73558044 C-16.64116712 78.03343608 -19.60186032 76.32926808 -22.5625 74.625 C-23.66746826 73.98925049 -24.77243652 73.35350098 -25.91088867 72.69848633 C-26.93158447 72.10962646 -27.95228027 71.5207666 -29.00390625 70.9140625 C-29.89924072 70.3979541 -30.7945752 69.8818457 -31.71704102 69.35009766 C-33.51188064 68.28866432 -35.26500255 67.15666497 -37 66 C-36.41933397 62.19439766 -35.33578266 59.473423 -33.3671875 56.17578125 C-32.81546875 55.2420166 -32.26375 54.30825195 -31.6953125 53.34619141 C-31.09460938 52.34507324 -30.49390625 51.34395508 -29.875 50.3125 C-28.60079087 48.16061297 -27.32738199 46.00825193 -26.0546875 43.85546875 C-25.39049805 42.73575684 -24.72630859 41.61604492 -24.04199219 40.46240234 C-20.01277741 33.6492042 -16.09429349 26.7710626 -12.15185547 19.9074707 C-1.63473833 1.63473833 -1.63473833 1.63473833 0 0 Z " fill="#4F517B" transform="translate(40,259)"/>
</svg>
